<?xml version="1.0" standalone="no"?>
<svg xmlns:xlink="http://www.w3.org/1999/xlink" id="wave" style="transform:rotate(0deg); transition: 0.3s" viewBox="0 0 1440 170" version="1.1" xmlns="http://www.w3.org/2000/svg">
    <defs>
        <linearGradient id="sw-gradient-0" x1="0" x2="0" y1="1" y2="0">
            <stop stop-color="rgba(18, 79, 136, 1)" offset="0%"/>
            <stop stop-color="rgba(18, 79, 136, 1)" offset="100%"/>
        </linearGradient>
    </defs>
    <path style="transform:translate(0, 0px); opacity:1" 
        fill="url(#sw-gradient-0)" 
        d="M0,51L80,59.5C160,68,320,85,480,93.5C640,102,800,102,960,85C1120,68,1280,34,1440,28.3C1600,23,1760,45,1920,48.2C2080,51,2240,34,2400,22.7C2560,11,2720,6,2880,19.8C3040,34,3200,68,3360,73.7C3520,79,3680,57,3840,59.5C4000,62,4160,91,4320,99.2C4480,108,4640,96,4800,76.5C4960,57,5120,28,5280,25.5C5440,23,5600,45,5760,62.3C5920,79,6080,91,6240,85C6400,79,6560,57,6720,51C6880,45,7040,57,7200,73.7C7360,91,7520,113,7680,110.5C7840,108,8000,79,8160,68C8320,57,8480,62,8640,65.2C8800,68,8960,68,9120,76.5C9280,85,9440,102,9600,99.2C9760,96,9920,74,10080,62.3C10240,51,10400,51,10560,59.5C10720,68,10880,85,11040,93.5C11200,102,11360,102,11440,102L11520,102L11520,170L11440,170C11360,170,11200,170,11040,170C10880,170,10720,170,10560,170C10400,170,10240,170,10080,170C9920,170,9760,170,9600,170C9440,170,9280,170,9120,170C8960,170,8800,170,8640,170C8480,170,8320,170,8160,170C8000,170,7840,170,7680,170C7520,170,7360,170,7200,170C7040,170,6880,170,6720,170C6560,170,6400,170,6240,170C6080,170,5920,170,5760,170C5600,170,5440,170,5280,170C5120,170,4960,170,4800,170C4640,170,4480,170,4320,170C4160,170,4000,170,3840,170C3680,170,3520,170,3360,170C3200,170,3040,170,2880,170C2720,170,2560,170,2400,170C2240,170,2080,170,1920,170C1760,170,1600,170,1440,170C1280,170,1120,170,960,170C800,170,640,170,480,170C320,170,160,170,80,170L0,170Z"
    />
</svg>